<?xml version="1.0" encoding="UTF-8"?>
<svg id="_レイヤー_1" data-name="レイヤー 1" xmlns="http://www.w3.org/2000/svg" viewBox="0 0 42.76 49.31">
  <defs>
    <style>
      .cls-1 {
        fill: #e16b19;
      }

      .cls-2 {
        fill: #ffde2a;
      }
    </style>
  </defs>
  <polygon class="cls-2" points="0 12.38 6.4 19.17 9.09 14.48 0 12.38"/>
  <polygon class="cls-2" points=".05 37.03 9.13 34.89 6.42 30.22 .05 37.03"/>
  <path class="cls-2" d="M21.45,49.31c.89-2.98,1.78-5.96,2.67-8.94-1.8,0-3.6.01-5.4.02l2.73,8.92Z"/>
  <polygon class="cls-1" points="12.02 8.51 12.13 11.84 14.84 10.26 12.02 8.51"/>
  <polygon class="cls-2" points="21.31 0 18.64 8.94 24.04 8.92 21.31 0"/>
  <polygon class="cls-1" points="30.68 8.48 27.85 10.24 30.57 11.79 30.68 8.48"/>
  <polygon class="cls-2" points="42.71 12.29 33.63 14.42 36.34 19.1 42.71 12.29"/>
  <polygon class="cls-1" points="40.04 24.61 37.1 23.05 37.12 26.18 40.04 24.61"/>
  <polygon class="cls-1" points="2.73 24.69 5.66 26.27 5.64 23.13 2.73 24.69"/>
  <polygon class="cls-1" points="12.09 40.82 14.92 39.08 12.18 37.51 12.09 40.82"/>
  <path class="cls-2" d="M42.76,36.93c-2.13-2.26-4.27-4.52-6.4-6.79-.9,1.56-1.79,3.12-2.69,4.68l9.09,2.1Z"/>
  <polygon class="cls-1" points="30.72 40.82 30.63 37.51 27.91 39.09 30.72 40.82"/>
</svg>