<?xml version="1.0" encoding="UTF-8"?>
<svg id="_レイヤー_1" data-name="レイヤー 1" xmlns="http://www.w3.org/2000/svg" viewBox="0 0 49.5 49.44">
  <defs>
    <style>
      .cls-1 {
        fill: #e16b19;
      }

      .cls-2 {
        fill: none;
      }

      .cls-3 {
        fill: #ffde2a;
      }
    </style>
  </defs>
  <circle class="cls-2" cx="24.75" cy="24.72" r="16.33"/>
  <polygon class="cls-3" points="18.06 0 17.78 9.68 23.19 8.22 18.06 0"/>
  <polygon class="cls-3" points="0 18.14 8.24 23.24 9.68 17.82 0 18.14"/>
  <path class="cls-3" d="M6.69,42.88c2.84-1.53,5.68-3.07,8.52-4.6-1.33-1.32-2.65-2.63-3.98-3.95l-4.54,8.56Z"/>
  <polygon class="cls-1" points="29.74 5.99 27.37 8.51 30.51 9.34 29.74 5.99"/>
  <polygon class="cls-3" points="42.81 6.56 34.28 11.16 38.26 15.11 42.81 6.56"/>
  <polygon class="cls-1" points="43.46 19.67 40.09 18.88 40.95 22.02 43.46 19.67"/>
  <polygon class="cls-3" points="49.5 31.3 41.26 26.2 39.82 31.62 49.5 31.3"/>
  <polygon class="cls-1" points="38.49 38.39 37.48 35.09 35.19 37.4 38.49 38.39"/>
  <polygon class="cls-1" points="11.02 11.04 12.02 14.35 14.31 12.03 11.02 11.04"/>
  <polygon class="cls-1" points="6.06 29.77 9.41 30.56 8.55 27.41 6.06 29.77"/>
  <path class="cls-3" d="M31.44,49.44c.1-3.23.19-6.46.29-9.68-1.8.49-3.61.98-5.41,1.46l5.13,8.22Z"/>
  <polygon class="cls-1" points="19.77 43.43 22.14 40.93 18.98 40.09 19.77 43.43"/>
</svg>