<?xml version="1.0" encoding="UTF-8"?>
<svg id="_レイヤー_1" data-name="レイヤー 1" xmlns="http://www.w3.org/2000/svg" xmlns:xlink="http://www.w3.org/1999/xlink" viewBox="0 0 314 149.2">
  <defs>
    <style>
      .cls-1 {
        fill: none;
        stroke: #fff;
        stroke-width: 3px;
      }

      .cls-2 {
        fill: #12f5fc;
      }

      .cls-3 {
        fill: #fff;
      }

      .cls-4 {
        fill: #e16b19;
      }

      .cls-5 {
        fill: url(#_名称未設定グラデーション_52);
      }

      .cls-6 {
        fill: #ffde2a;
      }

      .cls-7 {
        fill: #28e5eb;
      }

      .cls-8 {
        fill: #1b2c74;
      }
    </style>
    <linearGradient id="_名称未設定グラデーション_52" data-name="名称未設定グラデーション 52" x1="155.7" y1="5043.26" x2="155.7" y2="1252.73" gradientTransform="translate(16.29 171.49) scale(.91 -.02)" gradientUnits="userSpaceOnUse">
      <stop offset="0" stop-color="#28e5eb"/>
      <stop offset=".09" stop-color="#26dbe8"/>
      <stop offset=".23" stop-color="#23c2e1"/>
      <stop offset=".4" stop-color="#1e9cd7"/>
      <stop offset=".6" stop-color="#0075be"/>
      <stop offset=".99" stop-color="#1b2c74"/>
    </linearGradient>
  </defs>
  <g>
    <path class="cls-1" d="M45.58,134.46h-1.04l-2.46-5.13v5.13h-.95v-10.68h.95v4.8l2.24-4.8h1.03v.06l-2.41,5.08,2.65,5.53ZM51.6,133.69c0,.51-.26.77-.77.77h-2.28c-.51,0-.76-.26-.76-.77v-5.1c0-.51.25-.77.76-.77h2.28c.51,0,.77.26.77.77v5.1ZM50.69,133.66v-5.04h-2v5.04h2ZM58.29,134.46h-.91v-5.83l-2,.05v5.77h-.91v-6.64h.91v.18c.35-.05.71-.09,1.07-.14.44-.05.8-.08,1.08-.08.5,0,.76.25.76.74v5.93ZM64.33,134.46h-3.49v-.42l2.42-5.41h-2.17v-.81h3.24v.42l-2.43,5.4h2.43v.81ZM70.83,133.69c0,.51-.26.77-.77.77h-2.28c-.51,0-.76-.26-.76-.77v-5.1c0-.51.25-.77.76-.77h2.28c.51,0,.77.26.77.77v5.1ZM69.93,133.66v-5.04h-2v5.04h2ZM77.18,130.01h-.89v-1.37l-1.67.05v5.77h-.91v-6.64h.91v.18c.3-.05.6-.09.91-.14.36-.05.67-.08.91-.08.5,0,.75.25.75.74v1.48ZM83.48,134.46h-.89v-.18c-.36.05-.72.1-1.08.14-.45.05-.8.08-1.07.08-.5,0-.74-.25-.74-.74v-2.42c0-.51.26-.76.77-.76h2.14v-2h-1.95v1.13h-.88v-1.12c0-.51.25-.77.76-.77h2.18c.51,0,.76.26.76.77v5.87ZM82.6,133.64v-2.35h-2.03v2.39l2.03-.04ZM58.66,147.66h-.94l-.38-2.37h-2.12l-.38,2.37h-.91v-.03l1.9-10.68h.93l1.89,10.7ZM57.22,144.45l-.93-5.78-.94,5.78h1.88ZM64.81,146.89c0,.51-.26.77-.77.77h-2.08c-.51,0-.77-.26-.77-.77v-1.51h.89v1.49h1.83v-1.32l-2.37-1.94c-.23-.18-.34-.42-.34-.71v-1.11c0-.51.26-.77.77-.77h2.05c.51,0,.77.26.77.77v1.32h-.88v-1.31h-1.83v1.16l2.39,1.94c.22.18.33.42.33.72v1.26ZM71.4,147.66h-.89v-.18c-.36.05-.72.1-1.08.14-.45.05-.8.08-1.07.08-.5,0-.74-.25-.74-.74v-2.42c0-.51.26-.76.77-.76h2.14v-2h-1.95v1.13h-.88v-1.12c0-.51.25-.77.76-.77h2.18c.51,0,.76.26.76.77v5.87ZM70.52,146.84v-2.35h-2.03v2.39l2.03-.04ZM78.09,147.66h-.91v-5.83l-2,.05v5.77h-.91v-10.68h.91v4.22c.36-.05.72-.09,1.08-.14.45-.06.81-.09,1.07-.09.5,0,.76.25.76.74v5.93ZM81.92,139.57h-.92v-1.15h.92v1.15ZM81.9,147.66h-.89v-6.64h.89v6.64Z"/>
    <path class="cls-8" d="M45.58,134.46h-1.04l-2.46-5.13v5.13h-.95v-10.68h.95v4.8l2.24-4.8h1.03v.06l-2.41,5.08,2.65,5.53ZM51.6,133.69c0,.51-.26.77-.77.77h-2.28c-.51,0-.76-.26-.76-.77v-5.1c0-.51.25-.77.76-.77h2.28c.51,0,.77.26.77.77v5.1ZM50.69,133.66v-5.04h-2v5.04h2ZM58.29,134.46h-.91v-5.83l-2,.05v5.77h-.91v-6.64h.91v.18c.35-.05.71-.09,1.07-.14.44-.05.8-.08,1.08-.08.5,0,.76.25.76.74v5.93ZM64.33,134.46h-3.49v-.42l2.42-5.41h-2.17v-.81h3.24v.42l-2.43,5.4h2.43v.81ZM70.83,133.69c0,.51-.26.77-.77.77h-2.28c-.51,0-.76-.26-.76-.77v-5.1c0-.51.25-.77.76-.77h2.28c.51,0,.77.26.77.77v5.1ZM69.93,133.66v-5.04h-2v5.04h2ZM77.18,130.01h-.89v-1.37l-1.67.05v5.77h-.91v-6.64h.91v.18c.3-.05.6-.09.91-.14.36-.05.67-.08.91-.08.5,0,.75.25.75.74v1.48ZM83.48,134.46h-.89v-.18c-.36.05-.72.1-1.08.14-.45.05-.8.08-1.07.08-.5,0-.74-.25-.74-.74v-2.42c0-.51.26-.76.77-.76h2.14v-2h-1.95v1.13h-.88v-1.12c0-.51.25-.77.76-.77h2.18c.51,0,.76.26.76.77v5.87ZM82.6,133.64v-2.35h-2.03v2.39l2.03-.04ZM58.66,147.66h-.94l-.38-2.37h-2.12l-.38,2.37h-.91v-.03l1.9-10.68h.93l1.89,10.7ZM57.22,144.45l-.93-5.78-.94,5.78h1.88ZM64.81,146.89c0,.51-.26.77-.77.77h-2.08c-.51,0-.77-.26-.77-.77v-1.51h.89v1.49h1.83v-1.32l-2.37-1.94c-.23-.18-.34-.42-.34-.71v-1.11c0-.51.26-.77.77-.77h2.05c.51,0,.77.26.77.77v1.32h-.88v-1.31h-1.83v1.16l2.39,1.94c.22.18.33.42.33.72v1.26ZM71.4,147.66h-.89v-.18c-.36.05-.72.1-1.08.14-.45.05-.8.08-1.07.08-.5,0-.74-.25-.74-.74v-2.42c0-.51.26-.76.77-.76h2.14v-2h-1.95v1.13h-.88v-1.12c0-.51.25-.77.76-.77h2.18c.51,0,.76.26.76.77v5.87ZM70.52,146.84v-2.35h-2.03v2.39l2.03-.04ZM78.09,147.66h-.91v-5.83l-2,.05v5.77h-.91v-10.68h.91v4.22c.36-.05.72-.09,1.08-.14.45-.06.81-.09,1.07-.09.5,0,.76.25.76.74v5.93ZM81.92,139.57h-.92v-1.15h.92v1.15ZM81.9,147.66h-.89v-6.64h.89v6.64Z"/>
  </g>
  <polygon class="cls-6" points="0 30.21 15.61 46.76 22.17 35.34 0 30.21"/>
  <polygon class="cls-6" points=".13 90.33 22.27 85.11 15.67 73.72 .13 90.33"/>
  <polygon class="cls-4" points="29.33 20.76 29.6 28.88 36.19 25.04 29.33 20.76"/>
  <polygon class="cls-6" points="51.99 0 45.48 21.8 58.65 21.76 51.99 0"/>
  <polygon class="cls-4" points="74.85 20.68 67.95 24.98 74.58 28.77 74.85 20.68"/>
  <polygon class="cls-6" points="104.2 29.97 82.05 35.19 88.65 46.59 104.2 29.97"/>
  <polygon class="cls-4" points="6.65 60.24 13.8 64.08 13.75 56.42 6.65 60.24"/>
  <polygon class="cls-4" points="29.5 99.58 36.39 95.34 29.72 91.52 29.5 99.58"/>
  <circle class="cls-6" cx="52.07" cy="60.05" r="29.91"/>
  <g>
    <path class="cls-2" d="M141.2,117.68h-17.42v-10.49h12.66c1.93,0,3.49-1.56,3.49-3.49v-5.15c0-1.04-.45-1.97-1.17-2.61,1.47-.51,2.56-1.24,3.35-2.2,1.06-1.3,2.1-3.54,2.5-11,.05-.87-.23-1.68-.73-2.32.36-.55.57-1.21.57-1.92v-13.26c0-1.93-1.56-3.49-3.49-3.49h-17.03v-4.55c0-1.93-1.56-3.49-3.49-3.49h-5.54c-1.93,0-3.49,1.56-3.49,3.49v4.55h-17.03c-.88,0-1.68.32-2.29.86v-4.78c0-1.93-1.56-3.49-3.49-3.49h-.49v-6.96c0-1.93-1.56-3.49-3.49-3.49h-5.31c-1.93,0-3.49,1.56-3.49,3.49v6.96h-8.78v-6.96c0-1.93-1.56-3.49-3.49-3.49h-5.38c-1.93,0-3.49,1.56-3.49,3.49v4.62l-1.27-.71c-.14-.08-.29-.15-.44-.21.16-.47.32-.94.48-1.41.57-1.68-.22-3.53-1.83-4.28l-4.68-2.19c-.47-.22-.97-.33-1.48-.33-.46,0-.93.09-1.36.28-.91.39-1.62,1.14-1.94,2.07-.84,2.41-1.61,4.75-2.33,7.01-.2-.04-.4-.06-.61-.07-.03,0-.06,0-.09,0-1.18,0-2.27.59-2.92,1.58l-3.12,4.76c-.66,1.01-.76,2.3-.24,3.4,2.4,5.13,4.38,9.8,5.9,13.91-.19.45-.4.95-.64,1.49l-2.05.16c-1.86.14-3.29,1.72-3.23,3.59l.16,5.07c.03.96.46,1.87,1.18,2.51.29.26.62.46.97.61-.02.11-.03.22-.03.33-.41,7.48-1.2,14.69-2.37,21.44-.32,1.84.87,3.6,2.69,4.01l4.6,1.01c.2.05.41.07.61.08v.65c0,1.93,1.56,3.49,3.49,3.49h5.38c1.93,0,3.49-1.56,3.49-3.49v-3.63l1.68-.17v3.49c0,1.93,1.56,3.49,3.49,3.49h26.45c1.93,0,3.49-1.56,3.49-3.49v-49.96h.49c.88,0,1.68-.32,2.29-.86v16.17c0,1.93,1.56,3.49,3.49,3.49h4.26c-1.69,1.08-3.65,2.01-5.91,2.82-1.71.61-2.67,2.44-2.2,4.2l1.33,4.92c.25.92.87,1.7,1.71,2.16.5.27,1.05.41,1.61.42v3.92c0,1.93,1.56,3.49,3.49,3.49h12.66v10.49h-17.42c-1.93,0-3.49,1.56-3.49,3.49v5.23c0,1.93,1.56,3.49,3.49,3.49h47.28c1.93,0,3.49-1.56,3.49-3.49v-5.23c0-1.93-1.56-3.49-3.49-3.49Z"/>
    <path class="cls-2" d="M236.14,67.52h-14.67l-1.25-6.53c-.32-1.67-1.78-2.84-3.43-2.84-.22,0-.44.02-.66.06l-5.31,1.01c-.92.18-1.73.71-2.25,1.49-.52.78-.71,1.73-.52,2.64l.85,4.15h-12.26c-1.93,0-3.49,1.56-3.49,3.49v5.31c0,1.93,1.56,3.49,3.49,3.49h14.7l4.16,20.56h-1.46c-1.93,0-3.49,1.56-3.49,3.49v5.31c0,1.93,1.56,3.49,3.49,3.49h4.53s.07,0,.1,0c2.81-.08,5.23-1.23,7.02-3.34.08-.09.15-.19.22-.29,2-2.93,2.65-6.19,1.94-9.68l-3.92-19.54h12.2c1.93,0,3.49-1.56,3.49-3.49v-5.31c0-1.93-1.56-3.49-3.49-3.49Z"/>
    <path class="cls-2" d="M192.1,82.83c0-.1,0-.2-.01-.3-.49-5.61-3.25-9.43-7.89-11.08.63-1.75-.23-3.71-1.97-4.41l-4.98-2.03c-.42-.17-.87-.26-1.32-.26-.47,0-.94.1-1.39.29-.86.37-1.54,1.08-1.87,1.95l-1.39,3.61h-.25v-9.24h15.55c1.93,0,3.49-1.56,3.49-3.49v-5.46c0-1.93-1.56-3.49-3.49-3.49h-15.55v-3.45c0-1.93-1.56-3.49-3.49-3.49h-5.46c-1.93,0-3.49,1.56-3.49,3.49v3.45h-7.12c-1.93,0-3.49,1.56-3.49,3.49v5.46c0,1.93,1.56,3.49,3.49,3.49h7.12v9.28c-6.93.63-11.08,4.85-11.69,11.9,0,.1-.01.2-.01.3v17.32c0,.06,0,.12,0,.18.35,6.85,4.28,11.12,11.07,12.02.15.02.31.03.46.03.05,0,.11,0,.16,0,2.92-.14,5.62-1.09,8.11-2.89,1.63-1.24,3.01-2.75,4.12-4.51.11-.17.2-.36.28-.55l2.9-7.13,5.68-14.41s.07.01.1.02c.01.04.03.1.04.18v17h-1.97c-1.93,0-3.49,1.56-3.49,3.49v5.31c0,1.93,1.56,3.49,3.49,3.49h4.06c.25,0,.51-.03.75-.08,6.09-1.35,9.45-5.66,9.45-12.15v-17.32Z"/>
    <path class="cls-2" d="M279.65,58.59h-4.99c-.18,0-.37.01-.55.04-6.57,1.05-10.3,5.37-10.51,12.16,0,.04,0,38.55,0,38.55-.02.08-.03.14-.04.18-.03,0-.07.02-.12.02h-5.43c-1.03-.14-1.56-.55-1.95-1.5l-1.8-6.76c-.73-3.28-.97-6.59-.7-9.82l2.65-22.61c.36-3.36-.59-6.5-2.74-9.08-.04-.05-.09-.1-.14-.15-2.21-2.36-5.06-3.6-8.24-3.6h-5.54c-1.93,0-3.49,1.56-3.49,3.49v5.31c0,1.93,1.56,3.49,3.49,3.49h4.32s-2.65,21.92-2.65,21.97c-.39,4.73-.02,9.46,1.12,14.15l1.87,6.94c.02.08.05.16.07.24,2.12,6.09,6.68,9.62,13.2,10.21.1,0,.21.01.32.01h5.85c.1,0,.21,0,.31-.01,6.92-.62,11.15-4.82,11.9-11.83.01-.12.02-.25.02-.37v-38.58h3.76c1.93,0,3.49-1.56,3.49-3.49v-5.46c0-1.93-1.56-3.49-3.49-3.49Z"/>
    <path class="cls-2" d="M215.93,117.33h-12.25s-.06,0-.09-.01c0-.02,0-.04-.01-.06v-10.79c0-1.93-1.56-3.49-3.49-3.49h-5.46c-1.93,0-3.49,1.56-3.49,3.49v11c0,.11,0,.23.02.34.69,7.02,4.96,11.26,12.03,11.95.11.01.23.02.34.02h12.41c1.93,0,3.49-1.56,3.49-3.49v-5.46c0-1.93-1.56-3.49-3.49-3.49Z"/>
  </g>
  <g>
    <path class="cls-3" d="M141.2,115.07h-17.42v-10.49h12.66c1.93,0,3.49-1.56,3.49-3.49v-5.15c0-1.04-.45-1.97-1.17-2.61,1.47-.51,2.56-1.24,3.35-2.2,1.06-1.3,2.1-3.54,2.5-11,.05-.87-.23-1.68-.73-2.32.36-.55.57-1.21.57-1.92v-13.26c0-1.93-1.56-3.49-3.49-3.49h-17.03v-4.55c0-1.93-1.56-3.49-3.49-3.49h-5.54c-1.93,0-3.49,1.56-3.49,3.49v4.55h-17.03c-.88,0-1.68.32-2.29.86v-4.78c0-1.93-1.56-3.49-3.49-3.49h-.49v-6.96c0-1.93-1.56-3.49-3.49-3.49h-5.31c-1.93,0-3.49,1.56-3.49,3.49v6.96h-8.78v-6.96c0-1.93-1.56-3.49-3.49-3.49h-5.38c-1.93,0-3.49,1.56-3.49,3.49v4.62l-1.27-.71c-.14-.08-.29-.15-.44-.21.16-.47.32-.94.48-1.41.57-1.68-.22-3.53-1.83-4.28l-4.68-2.19c-.47-.22-.97-.33-1.48-.33-.46,0-.93.09-1.36.28-.91.39-1.62,1.14-1.94,2.07-.84,2.41-1.61,4.75-2.33,7.01-.2-.04-.4-.06-.61-.07-.03,0-.06,0-.09,0-1.18,0-2.27.59-2.92,1.58l-3.12,4.76c-.66,1.01-.76,2.3-.24,3.4,2.4,5.13,4.38,9.8,5.9,13.91-.19.45-.4.95-.64,1.49l-2.05.16c-1.86.14-3.29,1.72-3.23,3.59l.16,5.07c.03.96.46,1.87,1.18,2.51.29.26.62.46.97.61-.02.11-.03.22-.03.33-.41,7.48-1.2,14.69-2.37,21.44-.32,1.84.87,3.6,2.69,4.01l4.6,1.01c.2.05.41.07.61.08v.65c0,1.93,1.56,3.49,3.49,3.49h5.38c1.93,0,3.49-1.56,3.49-3.49v-3.63l1.68-.17v3.49c0,1.93,1.56,3.49,3.49,3.49h26.45c1.93,0,3.49-1.56,3.49-3.49v-49.96h.49c.88,0,1.68-.32,2.29-.86v16.17c0,1.93,1.56,3.49,3.49,3.49h4.26c-1.69,1.08-3.65,2.01-5.91,2.82-1.71.61-2.67,2.44-2.2,4.2l1.33,4.92c.25.92.87,1.7,1.71,2.16.5.27,1.05.41,1.61.42v3.92c0,1.93,1.56,3.49,3.49,3.49h12.66v10.49h-17.42c-1.93,0-3.49,1.56-3.49,3.49v5.23c0,1.93,1.56,3.49,3.49,3.49h47.28c1.93,0,3.49-1.56,3.49-3.49v-5.23c0-1.93-1.56-3.49-3.49-3.49Z"/>
    <path class="cls-3" d="M236.14,64.9h-14.67l-1.25-6.53c-.32-1.67-1.78-2.84-3.43-2.84-.22,0-.44.02-.66.06l-5.31,1.01c-.92.18-1.73.71-2.25,1.49-.52.78-.71,1.73-.52,2.64l.85,4.15h-12.26c-1.93,0-3.49,1.56-3.49,3.49v5.31c0,1.93,1.56,3.49,3.49,3.49h14.7l4.16,20.56h-1.46c-1.93,0-3.49,1.56-3.49,3.49v5.31c0,1.93,1.56,3.49,3.49,3.49h4.53s.07,0,.1,0c2.81-.08,5.23-1.23,7.02-3.34.08-.09.15-.19.22-.29,2-2.93,2.65-6.19,1.94-9.68l-3.92-19.54h12.2c1.93,0,3.49-1.56,3.49-3.49v-5.31c0-1.93-1.56-3.49-3.49-3.49Z"/>
    <path class="cls-3" d="M192.1,80.21c0-.1,0-.2-.01-.3-.49-5.61-3.25-9.43-7.89-11.08.63-1.75-.23-3.71-1.97-4.41l-4.98-2.03c-.42-.17-.87-.26-1.32-.26-.47,0-.94.1-1.39.29-.86.37-1.54,1.08-1.87,1.95l-1.39,3.61h-.25v-9.24h15.55c1.93,0,3.49-1.56,3.49-3.49v-5.46c0-1.93-1.56-3.49-3.49-3.49h-15.55v-3.45c0-1.93-1.56-3.49-3.49-3.49h-5.46c-1.93,0-3.49,1.56-3.49,3.49v3.45h-7.12c-1.93,0-3.49,1.56-3.49,3.49v5.46c0,1.93,1.56,3.49,3.49,3.49h7.12v9.28c-6.93.63-11.08,4.85-11.69,11.9,0,.1-.01.2-.01.3v17.32c0,.06,0,.12,0,.18.35,6.85,4.28,11.12,11.07,12.02.15.02.31.03.46.03.05,0,.11,0,.16,0,2.92-.14,5.62-1.09,8.11-2.89,1.63-1.24,3.01-2.75,4.12-4.51.11-.17.2-.36.28-.55l2.9-7.13,5.68-14.41s.07.01.1.02c.01.04.03.1.04.18v17h-1.97c-1.93,0-3.49,1.56-3.49,3.49v5.31c0,1.93,1.56,3.49,3.49,3.49h4.06c.25,0,.51-.03.75-.08,6.09-1.35,9.45-5.66,9.45-12.15v-17.32Z"/>
    <path class="cls-3" d="M279.65,55.98h-4.99c-.18,0-.37.01-.55.04-6.57,1.05-10.3,5.37-10.51,12.16,0,.04,0,38.55,0,38.55-.02.08-.03.14-.04.18-.03,0-.07.02-.12.02h-5.43c-1.03-.14-1.56-.55-1.95-1.5l-1.8-6.76c-.73-3.28-.97-6.59-.7-9.82l2.65-22.61c.36-3.36-.59-6.5-2.74-9.08-.04-.05-.09-.1-.14-.15-2.21-2.36-5.06-3.6-8.24-3.6h-5.54c-1.93,0-3.49,1.56-3.49,3.49v5.31c0,1.93,1.56,3.49,3.49,3.49h4.32s-2.65,21.92-2.65,21.97c-.39,4.73-.02,9.46,1.12,14.15l1.87,6.94c.02.08.05.16.07.24,2.12,6.09,6.68,9.62,13.2,10.21.1,0,.21.01.32.01h5.85c.1,0,.21,0,.31-.01,6.92-.62,11.15-4.82,11.9-11.83.01-.12.02-.25.02-.37v-38.58h3.76c1.93,0,3.49-1.56,3.49-3.49v-5.46c0-1.93-1.56-3.49-3.49-3.49Z"/>
    <path class="cls-3" d="M215.93,114.71h-12.25s-.06,0-.09-.01c0-.02,0-.04-.01-.06v-10.79c0-1.93-1.56-3.49-3.49-3.49h-5.46c-1.93,0-3.49,1.56-3.49,3.49v11c0,.11,0,.23.02.34.69,7.02,4.96,11.26,12.03,11.95.11.01.23.02.34.02h12.41c1.93,0,3.49-1.56,3.49-3.49v-5.46c0-1.93-1.56-3.49-3.49-3.49Z"/>
  </g>
  <rect class="cls-6" x="306.7" y="138.5" width="7.02" height="6.98"/>
  <rect class="cls-6" x="90.35" y="138.5" width="211.4" height="6.98"/>
  <path class="cls-5" d="M170.74,93.39l6.55-16.62h2.57c2.03.21,3.17,1.35,3.43,3.43v17.32c.05,1.35-.42,2.5-1.4,3.43h-4.06v5.31h4.06c4.47-.99,6.71-3.9,6.71-8.74v-17.32c-.47-5.36-3.37-8.27-8.71-8.74h-.54l1.55-3.82-4.98-2.03-2.25,5.85h-6.14v-16.23h19.04v-5.46h-19.04v-6.94h-5.46v6.94h-10.61v5.46h10.61v16.23h-2.96c-5.36.42-8.27,3.33-8.74,8.74v17.32c.26,5.15,2.94,8.06,8.04,8.74,2.24-.11,4.29-.83,6.16-2.19,1.3-.99,2.39-2.18,3.28-3.59l2.89-7.1ZM163.64,96.98c-1.09,2.24-2.84,3.56-5.23,3.98-1.77-.42-2.68-1.56-2.73-3.43v-17.32c.21-2.08,1.35-3.22,3.43-3.43h2.96v2.81c.16,4.37.99,8.61,2.5,12.72l.39,1.17-1.33,3.51ZM168.17,85.44c-.42-1.98-.62-3.93-.62-5.85v-2.81h4.06l-3.43,8.66ZM203.53,118.21h12.41v5.46h-12.41c-5.4-.53-8.37-3.47-8.89-8.82v-11h5.46v11c.21,2.08,1.35,3.2,3.43,3.36ZM218.59,68.39h17.56v5.31h-16.46l4.76,23.72c.52,2.55.05,4.89-1.4,7.02-1.14,1.35-2.63,2.05-4.45,2.11h-4.53v-5.31h4.53c.1,0,.21-.05.31-.15.47-.88.57-1.8.31-2.73l-4.99-24.66h-17.56v-5.31h16.54l-1.72-8.35,5.31-1.01,1.79,9.36ZM279.65,59.47v5.46h-4.99c-1.61.52-2.37,1.66-2.26,3.43v38.64c-.57,5.35-3.49,8.26-8.74,8.72h-5.85c-5.15-.47-8.56-3.09-10.22-7.88l-1.87-6.94c-1.04-4.26-1.38-8.58-1.01-12.95l2.73-22.63c.1-.94-.11-1.74-.62-2.42-.47-.52-1.04-.75-1.72-.7h-5.54v-5.31h5.54c2.24,0,4.13.83,5.7,2.5,1.56,1.87,2.21,4.03,1.95,6.48l-2.65,22.63c-.31,3.64-.05,7.31.78,11l1.87,7.02c.88,2.34,2.57,3.64,5.07,3.9h5.85c2.03-.21,3.17-1.35,3.43-3.43v-38.7c.16-5.1,2.68-8.04,7.57-8.82h4.99ZM110.07,67.68h-10.22v11.47h-5.46v-16.54h20.52v-8.04h5.54v8.04h20.52v13.26h-5.54v-8.19h-10.07v15.45c0,1.2.05,1.95.16,2.26.1.31.57.5,1.4.55.67.05,1.62.08,2.85.08s2.12-.03,2.69-.08c1.46-.1,2.33-.45,2.61-1.05.29-.6.53-2.46.74-5.58l5.31.62c-.26,4.9-.83,7.9-1.72,8.98-.89,1.08-3.12,1.7-6.71,1.86-1.51.11-2.63.16-3.36.16-.78,0-1.9-.05-3.36-.16-2.53-.11-4.19-.48-4.98-1.14-.79-.65-1.19-2.05-1.19-4.19v-17.77h-4.29c-.1,6.24-1.82,11.59-5.15,16.03-3.33,4.45-8.38,7.76-15.14,9.95l-1.33-4.92c10.77-3.85,16.15-10.87,16.15-21.07ZM120.29,118.56h20.91v5.23h-47.28v-5.23h20.91v-17.48h-16.15v-5.15h37.76v5.15h-16.15v17.48ZM38.58,87.11l4.68.47c-.36,7.13-1.2,14.59-2.5,22.39l-4.6-1.01c1.2-6.92,2-14.2,2.42-21.85ZM54.74,86.56c.83,6.81,1.4,13.5,1.72,20.05l-4.68.47c-.36-7.54-.91-14.15-1.64-19.82l4.6-.7ZM84.62,44.74h-5.31v10.46h-15.76v-10.46h-5.38v10.46h-2.57c.1-.36.23-.73.39-1.09l-4.29-2.42c-2.18,5.57-4.29,11.11-6.32,16.62-.83-2.86-1.33-4.63-1.48-5.31,2.18-5.51,4.26-11.21,6.24-17.09l-4.68-2.19c-1.77,5.1-3.25,9.81-4.45,14.12-.21-1.46-.83-3.07-1.87-4.84l-3.12,4.76c2.7,5.77,4.86,10.92,6.48,15.45-.42,1.09-1.09,2.68-2.03,4.76l-4.13.31.16,5.07,7.65-.7v31.44h5.38v-31.83l3.61-.47c0,.57.18,1.82.54,3.75l4.51-.94c-.89-6.66-2.08-13.03-3.59-19.12l-3.46,1.09c1.07-2.76,2.15-5.54,3.22-8.35v2.11h3.82v53.45h26.45v-53.45h3.98v-5.15h-3.98v-10.46ZM52.16,76.96l-5.7.62c1.35-3.17,2.68-6.34,3.98-9.52.73,3.23,1.3,6.19,1.72,8.89ZM79.31,108.34h-15.76v-22.68h15.76v22.68ZM79.57,79.38h-15.76v-19.23h15.76v19.23Z"/>
  <g>
    <rect class="cls-7" x="283.15" y="106.47" width="8.39" height="21.17"/>
    <rect class="cls-7" x="293.83" y="100.49" width="9.27" height="27.15"/>
    <rect class="cls-7" x="305.17" y="91.77" width="8.83" height="35.87"/>
    <rect class="cls-3" x="288.01" y="108.58" width="2.25" height="2.25"/>
    <rect class="cls-3" x="288.01" y="113.41" width="2.25" height="2.25"/>
    <rect class="cls-3" x="299.32" y="102.44" width="2.25" height="2.25"/>
    <rect class="cls-3" x="310.71" y="93.94" width="2.25" height="2.25"/>
    <rect class="cls-3" x="310.71" y="97.82" width="2.25" height="2.25"/>
  </g>
</svg>